<?xml version="1.0" encoding="UTF-8"?>
<svg width="92px" height="92px" viewBox="0 0 92 92" version="1.1" xmlns="http://www.w3.org/2000/svg" xmlns:xlink="http://www.w3.org/1999/xlink">
    <!-- Generator: Sketch 63.1 (92452) - https://sketch.com -->
    <title>research</title>
    <desc>Created with Sketch.</desc>
    <g id="Page-1" stroke="none" stroke-width="1" fill="none" fill-rule="evenodd">
        <g id="Desktop-HD-Copy-5" transform="translate(-310.000000, -4300.000000)" fill="#333333" fill-rule="nonzero">
            <g id="research" transform="translate(310.000000, 4300.000000)">
                <path d="M90.8185218,62.0189246 L76.9924374,48.1506306 C80.3327935,43.7362319 82.4181472,38.4447256 82.9529973,32.8969856 C83.6078728,26.0884916 81.9169886,19.2096039 78.1912877,13.5267078 C77.7820782,12.9030181 76.9461117,12.7298493 76.3249277,13.1402455 C75.7030417,13.5506416 75.5303735,14.3890325 75.939583,15.0127222 C82.9901982,25.7660879 81.5112886,40.1876774 72.4230491,49.3029781 C61.8081706,59.9493452 44.5378484,59.9493452 33.9236719,49.3029781 C23.3087934,38.6566111 23.3087934,21.3333865 33.9236719,10.6870196 C44.5378484,0.0406524191 61.8088726,0.0406524191 72.4195396,10.6834998 L72.4932394,10.7581174 C73.0182628,11.2874792 73.8710749,11.2909989 74.3989059,10.7644528 C74.9274388,10.2386106 74.9302464,9.38262133 74.4059251,8.85325952 L74.3287156,8.77512229 C62.6630885,-2.92504076 43.6829306,-2.92504076 32.0173035,8.77512229 C31.65091,9.14257832 31.2964491,9.51707364 30.9532186,9.89860844 L1.34765368,9.89860844 C0.603636544,9.89860844 0,10.5039954 0,11.2501705 L0,17.2280167 C0,17.9748957 0.603636544,18.5802829 1.34765368,18.5802829 C2.09237267,18.5802829 2.69530736,17.9748957 2.69530736,17.2280167 L2.69530736,12.6024365 L28.7913575,12.6024365 C27.7616658,14.0532538 26.8758642,15.5751691 26.1339528,17.1498797 L9.34373218,17.1498797 C8.59971504,17.1498797 7.9960785,17.754563 7.9960785,18.5014418 C7.9960785,19.2483205 8.59971504,19.8530038 9.34373218,19.8530038 L25.018629,19.8530038 C24.6318805,20.938477 24.309707,22.0415488 24.0514067,23.1572914 L9.34373218,23.1572914 C8.59971504,23.1572914 7.9960785,23.7619747 7.9960785,24.5088535 C7.9960785,25.2550284 8.59971504,25.8604155 9.34373218,25.8604155 L23.5530557,25.8604155 C23.4021465,26.9564481 23.311601,28.0595197 23.2814192,29.1639994 L9.34373218,29.1639994 C8.59971504,29.1639994 7.9960785,29.7693864 7.9960785,30.5162654 C7.9960785,31.2624403 8.59971504,31.8678275 9.34373218,31.8678275 L23.3284467,31.8678275 C23.5713052,35.7943968 24.5757282,39.6815457 26.3452257,43.2835993 L24.0787809,43.2835993 C23.3340619,43.2835993 22.7311273,43.8889865 22.7311273,44.6358653 L22.7311273,84.647734 C22.7311273,85.394613 23.3340619,86 24.0787809,86 L34.8600104,86 C35.6047295,86 36.207664,85.394613 36.207664,84.647734 L36.207664,54.7155618 C37.4212542,55.5539527 38.682574,56.2930881 39.9810944,56.9315605 L39.9810944,84.647734 C39.9810944,85.394613 40.5847309,86 41.328748,86 L52.1099775,86 C52.8546966,86 53.4576311,85.394613 53.4576311,84.647734 L53.4576311,59.9873578 C54.5083798,59.9767987 55.5577248,59.9127404 56.6028583,59.7930707 L56.6028583,80.6711851 C56.6028583,81.4180638 57.2057929,82.023451 57.9505119,82.023451 C58.6945293,82.023451 59.2981656,81.4180638 59.2981656,80.6711851 L59.2981656,59.3580368 C63.5580148,58.4710742 67.6606375,56.6478732 71.2754377,53.8877301 L85.0987146,67.7532082 C85.8630869,68.5190933 86.8787405,68.9414565 87.9582672,68.9414565 C89.0384959,68.9414565 90.0541495,68.5190933 90.8178199,67.7532082 C92.393592,66.17357 92.3942939,63.6013785 90.8185218,62.0189246 L90.8185218,62.0189246 Z M33.5123567,83.296172 L25.4264346,83.296172 L25.4264346,45.9874274 L27.854317,45.9874274 C29.0201778,47.8437135 30.407138,49.5993362 32.0173035,51.2148753 C32.5030203,51.7020008 33.0027752,52.1673042 33.5123567,52.6136013 L33.5123567,83.296172 Z M42.6771036,83.296172 L42.6771036,58.094467 C45.2909904,59.0722376 48.0143738,59.6705855 50.7630256,59.8916221 L50.7630256,83.296172 L42.6771036,83.296172 Z M88.9128552,65.841311 C88.6580646,66.0968407 88.3190454,66.2376285 87.9589692,66.2376285 C87.5988929,66.2376285 87.2598739,66.0968407 87.0057849,65.841311 L73.3530704,52.1482978 C73.6836668,51.8449002 74.0093498,51.5351672 74.3287156,51.2148753 C74.6473797,50.8952871 74.9576207,50.5693637 75.2601409,50.2364006 L88.9114515,63.9301177 C89.4371768,64.4573678 89.4378788,65.3154688 88.9128552,65.841311 L88.9128552,65.841311 Z" id="Shape"></path>
                <path d="M58.6363959,84.9347479 C57.883573,84.9347479 57.2727918,85.5348716 57.2727918,86.2761189 L57.2727918,89.3172582 L2.72720817,89.3172582 L2.72720817,23.3413709 C2.72720817,22.6001238 2.11713734,22 1.36360408,22 C0.610780996,22 0,22.6001238 0,23.3413709 L0,90.6586291 C0,91.3998762 0.610780996,92 1.36360408,92 L58.6363959,92 C59.3899294,92 60,91.3998762 60,90.6586291 L60,86.2761189 C60,85.5348716 59.3899294,84.9347479 58.6363959,84.9347479 Z" id="Path"></path>
                <path d="M6,55.3557228 L6,84.6442772 C6,85.3927492 6.58226134,86 7.2999323,86 L17.7000677,86 C18.4177387,86 19,85.3927492 19,84.6442772 L19,55.3557228 C19,54.607251 18.4177387,54 17.7000677,54 L7.2999323,54 C6.58226134,54 6,54.607251 6,55.3557228 L6,55.3557228 Z M8.5998646,56.7121518 L16.4001354,56.7121518 L16.4001354,83.2878484 L8.5998646,83.2878484 L8.5998646,56.7121518 Z" id="Shape"></path>
                <path d="M18.7338572,38 C19.433533,38 20,37.3282999 20,36.4996095 C20,35.6716999 19.433533,35 18.7338572,35 L9.26614278,35 C8.56712645,35 8,35.6716999 8,36.4996095 C8,37.3282999 8.56712645,38 9.26614278,38 L18.7338572,38 Z" id="Path"></path>
                <path d="M54.0003436,6 C47.5800971,6 41.5501225,8.49384563 37.0221448,13.021927 C32.4941669,17.5500086 30,23.5798935 30,30 C30,36.4201065 32.4941669,42.4499914 37.0221448,46.978073 C41.5508095,51.5061546 47.5800971,54 54.0003436,54 C60.4205901,54 66.4498777,51.5061546 70.9785425,46.978073 C75.5065203,42.4499914 78,36.4201065 78,30 C78,23.5798935 75.5065203,17.5500086 70.9785425,13.021927 C66.4498777,8.49384563 60.4205901,6 54.0003436,6 L54.0003436,6 Z M69.1123837,45.1121544 C65.082552,49.1421537 59.7156272,51.3611954 54.0003436,51.3611954 C48.2843728,51.3611954 42.9181352,49.1421537 38.8883036,45.1121544 C34.8577851,41.0821551 32.6384575,35.7152344 32.6384575,30.0000001 C32.6384575,24.2840786 34.8577851,18.9171582 38.8883036,14.8871586 C43.0541806,10.7211313 48.5276057,8.63743063 54.0003436,8.63743063 C59.4730815,8.63743063 64.9465066,10.7211313 69.1123837,14.8871586 C73.1422151,18.9171582 75.3615425,24.2840786 75.3615425,30.0000001 C75.3615425,35.7152344 73.1422151,41.0821551 69.1123837,45.1121544 L69.1123837,45.1121544 Z" id="Shape"></path>
            </g>
        </g>
    </g>
</svg>