<?xml version="1.0" encoding="UTF-8"?>
<svg width="91px" height="92px" viewBox="0 0 91 92" version="1.1" xmlns="http://www.w3.org/2000/svg" xmlns:xlink="http://www.w3.org/1999/xlink">
    <!-- Generator: Sketch 63.1 (92452) - https://sketch.com -->
    <title>consult</title>
    <desc>Created with Sketch.</desc>
    <g id="Page-1" stroke="none" stroke-width="1" fill="none" fill-rule="evenodd">
        <g id="Desktop-HD-Copy-5" transform="translate(-671.000000, -4299.000000)" fill="#333333" fill-rule="nonzero">
            <g id="consult" transform="translate(671.000000, 4299.000000)">
                <rect id="Rectangle" x="21" y="35" width="3" height="3"></rect>
                <rect id="Rectangle" x="36" y="35" width="3" height="3"></rect>
                <path d="M89.6987025,52.3599155 L83.773097,51.5088509 C83.4912801,50.6755325 83.1584958,49.8605348 82.7766489,49.0685225 L86.3620421,44.2610756 C86.8147657,43.6538516 86.7546524,42.8042745 86.2209924,42.2676323 L79.7857879,35.7961864 C79.5385633,35.5493381 79.2136044,35.3967287 78.8666896,35.3645533 L78.8666896,20.6829276 C81.7410399,18.3686458 83.4148405,14.8669726 83.416681,11.1641216 C83.4450348,6.44384934 80.7356732,2.13974813 76.4809775,0.146038828 C76.0112068,-0.0770426612 75.4605807,-0.0428027225 75.0217184,0.236780879 C74.5828561,0.516364481 74.316829,1.00238535 74.3166983,1.52482438 L74.3166983,10.0659738 L71.2833707,11.0832857 L68.2500431,10.0659738 L68.2500431,1.52482438 C68.2478411,1.00346997 67.9809788,0.519366068 67.5424689,0.241243053 C67.103959,-0.0368799627 66.5545613,-0.0704853949 66.0857638,0.152139649 C61.8330723,2.14492655 59.1240839,6.44605203 59.1500603,11.1641216 C59.1519008,14.8669726 60.8257014,18.3686458 63.7000517,20.6829276 L63.7000517,30.9917899 L59.1500603,30.9917899 C58.3955519,30.9916887 57.7557033,31.5493471 57.6485631,32.300416 L56.6672817,39.2080706 L59.670276,39.6397037 L60.4650078,34.0422004 L66.9350956,34.0422004 L67.7298274,39.6397037 C67.8143416,40.2319879 68.2354344,40.7198665 68.8066587,40.8873216 C70.0707755,41.254624 71.2913145,41.7593975 72.4466518,42.3926991 C72.9687057,42.6805619 73.6099558,42.6346282 74.0861654,42.2752583 L78.5770069,38.8893027 L83.1512649,43.4893217 L79.7766879,48.0054545 C79.4193306,48.4843459 79.3736541,49.1292073 79.6599048,49.6542013 C80.2896599,50.8160452 80.7916065,52.0434579 81.156852,53.314694 C81.3233692,53.8891353 81.8085156,54.3125996 82.397483,54.3975897 L87.9636391,55.1967972 L87.9636391,61.7033228 L82.397483,62.5025304 C81.8085156,62.5875205 81.3233692,63.0109848 81.156852,63.5854261 C80.7916065,64.8566621 80.2896599,66.0840749 79.6599048,67.2459187 C79.3736541,67.7709127 79.4193306,68.4157742 79.7766879,68.8946656 L83.1436815,73.4107984 L78.5694235,78.0108174 L74.0816154,74.6126601 C73.6054058,74.2532903 72.9641557,74.2073566 72.4421018,74.4952193 C71.2867645,75.128521 70.0662255,75.6332945 68.8021087,76.0005969 C68.2308844,76.1680519 67.8097916,76.6559305 67.7252774,77.2482148 L66.9350956,82.8487685 L60.6667241,82.8487685 L60.6667241,76.3986755 C60.6656405,74.787377 60.4358226,73.1844854 59.9842254,71.6385099 C65.9203885,73.386131 72.2883024,70.9533979 75.573322,65.68301 C78.8583415,60.412622 78.260013,53.5888034 74.1085721,48.9778268 C69.9571312,44.3668502 63.2641507,43.0922626 57.7236898,45.8575475 C52.1832289,48.6228324 49.1453199,54.7541788 50.2866771,60.8675104 C50.2502771,60.8522583 50.2153939,60.8339559 50.1789939,60.820229 L37.9167672,55.8877152 L37.9167672,53.5434747 C39.943439,52.5007846 41.7385168,51.055182 43.1932405,49.2942529 L47.0167499,49.2942529 C49.5296408,49.2942529 51.5667413,47.24568 51.5667413,44.7186371 L51.5667413,41.3875889 C53.37817,40.743564 54.5921043,39.0247187 54.6000689,37.0926109 L54.6000689,32.5169951 C54.5921043,30.5848873 53.37817,28.866042 51.5667413,28.2220171 L51.5667413,26.4161741 C51.5667409,14.623308 42.0602719,5.06330128 30.3334482,5.06330128 C18.6066245,5.06330128 9.10015544,14.623308 9.10015505,26.4161741 L9.10015505,28.2220171 C7.28872633,28.866042 6.07479205,30.5848873 6.06682745,32.5169951 L6.06682745,37.0926109 C6.06682745,39.6196537 8.10392799,41.6682266 10.6168188,41.6682266 L13.6501464,41.6682266 C13.7472129,41.6682266 13.8412461,41.6529746 13.9367959,41.6468738 C14.8818772,46.771913 18.1373377,51.166268 22.7501292,53.5434747 L22.7501292,55.8877152 L10.4879024,60.820229 C4.13925181,63.3504227 -0.0217845132,69.5312149 8.57973054e-05,76.3986755 L8.57973054e-05,90.4747947 C8.57973054e-05,91.3171423 0.679205783,92 1.51683607,92 L59.1500603,92 C59.9876906,92 60.6667241,91.3171423 60.6667241,90.4747947 L60.6667241,85.899179 L68.2500431,85.899179 C69.0045515,85.8992802 69.6444,85.3416218 69.7515402,84.5905529 L70.5978386,78.631576 C71.4264903,78.3481719 72.2369239,78.0135135 73.0245007,77.6295161 L77.805025,81.2351013 C78.4088484,81.6903746 79.2536676,81.6299226 79.7873046,81.0932572 L86.222509,74.6218113 C86.756169,74.0851691 86.8162824,73.235592 86.3635588,72.6283681 L82.7781656,67.8209211 C83.1600125,67.0289089 83.4927968,66.2139111 83.7746137,65.3805927 L89.7002191,64.5295282 C90.4459097,64.4211806 91,63.778777 91,63.0211002 L91,53.8698687 C91,53.111111 90.4455652,52.467659 89.6987025,52.3599155 Z M73.0154007,39.2614528 C72.9441175,39.226373 72.8637343,39.203495 72.7924511,39.1699404 L72.7924511,20.3153531 L69.7667069,20.3153531 L69.7667069,32.4102308 L69.7515402,32.300416 C69.6444,31.5493471 69.0045515,30.9916887 68.2500431,30.9917899 L66.7333793,30.9917899 L66.7333793,19.9187997 C66.7334041,19.4194591 66.4903685,18.9517297 66.0827305,18.6666062 C63.7985844,17.0674221 62.3677545,14.5050053 62.1989478,11.7112934 C62.0301412,8.91758142 63.1419213,6.19979523 65.2167155,4.33425245 L65.2167155,11.1641216 C65.2165582,11.8208863 65.6344915,12.4040037 66.2541135,12.6115414 L70.8041049,14.1367466 C71.1152142,14.2409503 71.4515271,14.2409503 71.7626364,14.1367466 L76.3126278,12.6115414 C76.9322498,12.4040037 77.3501831,11.8208863 77.3500258,11.1641216 L77.3500258,4.33425245 C79.4265609,6.19977598 80.5394973,8.91868402 80.3706664,11.7136894 C80.2018355,14.5086947 78.7698212,17.0721399 76.4840108,18.6711818 C76.0776902,18.9553806 75.8348236,19.4210769 75.833362,19.9187997 L75.833362,37.1429427 L73.0154007,39.2614528 Z M53.0834051,58.4454844 C53.0490617,53.5401144 56.3204305,49.2332217 61.0355627,47.9761394 C65.750695,46.7190571 70.7141195,48.8305048 73.1008283,53.1087202 C75.4875372,57.3869357 74.6924059,62.7472233 71.1679956,66.1386945 C67.6435852,69.5301657 62.2834722,70.0929494 58.1384455,67.5067288 C57.0899794,65.8176971 55.7487373,64.3314907 54.1784364,63.1187133 C53.456885,61.6678477 53.0819341,60.0676823 53.0834051,58.4454844 L53.0834051,58.4454844 Z M47.0167499,46.2438424 L45.1755201,46.2438424 C45.914637,44.796287 46.4384156,43.2474486 46.7301005,41.6468738 C46.8256503,41.6468738 46.9196834,41.6682266 47.0167499,41.6682266 L48.5334137,41.6682266 L48.5334137,44.7186371 C48.5334137,45.5609848 47.8543802,46.2438424 47.0167499,46.2438424 Z M43.9834223,29.4665846 C42.5521216,29.4630063 41.2050562,28.7856805 40.3434292,27.6363383 L37.6134344,23.9758457 C37.3671685,23.6456707 36.9983536,23.4299591 36.591203,23.3779652 C36.1840088,23.3276868 35.7737613,23.4435986 35.4521885,23.6997836 L30.3622648,27.7888588 C29.0192729,28.869604 27.3518371,29.4609824 25.6317904,29.4665846 L16.683474,29.4665846 L16.683474,27.9413794 C16.683474,20.360251 22.7947757,14.2145323 30.3334482,14.2145323 C37.8721207,14.2145323 43.9834223,20.360251 43.9834223,27.9413794 L43.9834223,29.4665846 Z M51.5667413,37.0926109 C51.5667413,37.9349585 50.8877078,38.6178161 50.0500775,38.6178161 L47.0167499,38.6178161 L47.0167499,30.9917899 L50.0500775,30.9917899 C50.8877078,30.9917899 51.5667413,31.6746475 51.5667413,32.5169951 L51.5667413,37.0926109 Z M30.3334482,8.11371107 C40.380507,8.12463893 48.5225471,16.3125328 48.5334137,26.4161741 L48.5334137,27.9413794 L47.0167499,27.9413794 C47.0167499,18.6755557 39.5473813,11.1641216 30.3334482,11.1641216 C21.119515,11.1641216 13.6501464,18.6755557 13.6501464,27.9413794 L12.1334826,27.9413794 L12.1334826,26.4161741 C12.1443493,16.3125328 20.2863893,8.12463893 30.3334482,8.11371107 Z M10.6168188,38.6178161 C9.77918856,38.6178161 9.10015505,37.9349585 9.10015505,37.0926109 L9.10015505,32.5169951 C9.10015505,31.6746475 9.77918856,30.9917899 10.6168188,30.9917899 L13.6501464,30.9917899 L13.6501464,38.6178161 L10.6168188,38.6178161 Z M16.6834679,38.6178161 L16.6834679,32.5169951 L25.6317904,32.5169951 C28.0416001,32.5137568 30.3791235,31.6889729 32.2626445,30.1773303 L36.1316539,27.0643863 L37.9167672,29.4665846 C39.3528122,31.3821549 41.5979212,32.5110313 43.983428,32.5169951 L43.983428,38.6178161 C43.9858928,41.3342122 43.1821374,43.9895405 41.67506,46.2438424 L30.3334482,46.2438424 L30.3334482,49.2942529 L38.8934986,49.2942529 C34.8055966,52.6181374 29.181777,53.2829508 24.4388224,51.0029959 C19.6958678,48.723041 16.6785273,43.9043916 16.6834679,38.6178161 L16.6834679,38.6178161 Z M30.3334482,55.3950739 C31.8727027,55.3912738 33.4039812,55.1726077 34.8834396,54.7453365 L34.8834396,56.9202792 C34.8834396,59.4473219 32.846339,61.4958948 30.3334482,61.4958948 C27.8205574,61.4958948 25.7834568,59.4473219 25.7834568,56.9202792 L25.7834568,54.7453365 C27.2629152,55.1726077 28.7941937,55.3912738 30.3334482,55.3950739 Z M57.6334681,88.9495895 L48.5334137,88.9495895 L48.5334137,72.1723317 L45.5000861,72.1723317 L45.5000861,88.9495895 L15.1668102,88.9495895 L15.1668102,72.1723317 L12.1334826,72.1723317 L12.1334826,88.9495895 L3.03342828,88.9495895 L3.03342828,76.3986755 C3.01542934,70.7796547 6.42014761,65.722484 11.6147836,63.6525352 L23.0853119,59.0387893 C24.005607,62.297432 26.9649034,64.545893 30.3334482,64.545893 C33.701993,64.545893 36.6612893,62.297432 37.5815845,59.0387893 L49.0521127,63.6525352 C54.2467488,65.722484 57.651467,70.7796547 57.6334681,76.3986755 L57.6334681,88.9495895 Z" id="Shape"></path>
                <rect id="Rectangle" x="62" y="37" width="3" height="3"></rect>
                <rect id="Rectangle" x="62" y="77" width="3" height="3"></rect>
                <polygon id="Rectangle" transform="translate(77.640321, 72.483921) rotate(-45.000000) translate(-77.640321, -72.483921) " points="76.1236547 70.9672539 79.1641309 70.960111 79.156988 74.0005872 76.1165118 74.0077301"></polygon>
                <rect id="Rectangle" x="82" y="58" width="3" height="3"></rect>
                <polygon id="Rectangle" transform="translate(77.641154, 44.469519) rotate(-45.000000) translate(-77.641154, -44.469519) " points="76.1244873 42.9528523 79.1649634 42.9457094 79.1578206 45.9861856 76.1173444 45.9933285"></polygon>
            </g>
        </g>
    </g>
</svg>