<?xml version="1.0" encoding="UTF-8"?>
<svg width="91px" height="91px" viewBox="0 0 91 91" version="1.1" xmlns="http://www.w3.org/2000/svg" xmlns:xlink="http://www.w3.org/1999/xlink">
    <!-- Generator: Sketch 63.1 (92452) - https://sketch.com -->
    <title>network</title>
    <desc>Created with Sketch.</desc>
    <g id="Page-1" stroke="none" stroke-width="1" fill="none" fill-rule="evenodd">
        <g id="Desktop-HD-Copy-5" transform="translate(-1056.000000, -4300.000000)" fill="#333333" fill-rule="nonzero">
            <g id="network" transform="translate(1056.000000, 4300.000000)">
                <path d="M85,18 C81.6908857,18 79,20.6910614 79,24 C79,27.3089386 81.6910614,30 85,30 C88.3089386,30 91,27.3091143 91,24 C91,20.6910614 88.3089386,18 85,18 Z M85,27.0000879 C83.3455307,27.0000879 81.9999121,25.6546451 81.9999121,24 C81.9999121,22.3455307 83.3453549,20.9999121 85,20.9999121 C86.6546451,20.9999121 88.0000879,22.3453549 88.0000879,24 C87.9999121,25.6546451 86.6544693,27.0000879 85,27.0000879 Z" id="Shape"></path>
                <path d="M6,68 C2.69106144,68 0,70.6910614 0,74 C0,77.3089386 2.69106144,80 6,80 C9.30911435,80 12,77.3089386 12,74 C12,70.6910614 9.30911435,68 6,68 Z M6,77.0000879 C4.34553072,77.0000879 2.99991211,75.6546451 2.99991211,74 C2.99991211,72.3453549 4.34535494,70.9999121 6,70.9999121 C7.65446928,70.9999121 9.00008789,72.3453549 9.00008789,74 C9.00008789,75.6546451 7.65464506,77.0000879 6,77.0000879 Z" id="Shape"></path>
                <path d="M82.1486145,20.9169269 L69.1598396,14.1621803 C68.4099817,13.7712371 67.5112107,14.1118157 67.1498674,14.9180293 C66.7885241,15.7240528 67.1031116,16.6939037 67.851558,17.0831364 L80.8403329,23.837883 C81.0511753,23.948115 81.2740154,24 81.4936797,24 C82.0536913,24 82.5912953,23.6626523 82.8501286,23.0820341 C83.211472,22.2760106 82.8968845,21.3061597 82.1486145,20.9169269 Z" id="Path"></path>
                <path d="M69,79 C65.6908857,79 63,81.691022 63,84.9999121 C63,88.3088022 65.6908857,91 69,91 C72.3091143,91 75,88.308978 75,85.0000879 C75,81.6911978 72.3091143,79 69,79 Z M69,87.9999561 C67.3455307,87.9999561 65.9999121,86.6545329 65.9999121,84.9999121 C65.9999121,83.3452913 67.3455307,82.0000439 69,82.0000439 C70.6544693,82.0000439 72.0000879,83.3454671 72.0000879,85.0000879 C72.0000879,86.6547087 70.6544693,87.9999561 69,87.9999561 Z" id="Shape"></path>
                <path d="M66.1485525,80.9170072 L53.1598308,74.1624363 C52.4099759,73.7715032 51.5112086,74.1105526 51.1498668,74.9182656 C50.788525,75.7242681 51.1031112,76.6940938 51.8515545,77.0833164 L64.8402763,83.8378873 C65.0511178,83.9481163 65.273957,84 65.4936204,84 C66.0536297,84 66.5912315,83.6626611 66.8502402,83.082058 C67.2114056,82.2758654 66.8968195,81.3062298 66.1485525,80.9170072 Z" id="Path"></path>
                <path d="M46,41 C42.6908857,41 40,43.6910614 40,47 C40,50.3091143 42.6910614,53 46,53 C49.3091143,53 52,50.3089386 52,47 C52,43.6910614 49.3091143,41 46,41 Z M46,50.0000879 C44.3455307,50.0000879 42.9999121,48.6546451 42.9999121,47 C42.9999121,45.3455307 44.3453549,43.9999121 46,43.9999121 C47.6544693,43.9999121 49.0000879,45.3453549 49.0000879,47 C49.0000879,48.6546451 47.6544693,50.0000879 46,50.0000879 Z" id="Shape"></path>
                <path d="M42.4194884,43.2531181 L32.4338944,35.3230193 C31.7768405,34.8055612 30.8307253,34.9207118 30.3182904,35.5902047 C29.8074448,36.2596975 29.9234578,37.2237241 30.5805116,37.7458601 L40.5661056,45.675959 C40.8419235,45.8940255 41.1673602,46 41.4913844,46 C41.9404271,46 42.3834661,45.7974069 42.6817096,45.4089535 C43.1925552,44.7392807 43.0765422,43.7750743 42.4194884,43.2531181 Z" id="Path"></path>
                <path d="M72.5,40 C63.4024737,40 56,47.4024737 56,56.5 C56,65.5975263 63.4024737,73 72.5,73 C81.5975263,73 89,65.5975263 89,56.5 C89,47.4024737 81.5975263,40 72.5,40 Z M72.5,69.9997763 C65.0555147,69.9997763 59.0000479,63.9443095 59.0000479,56.4998242 C59.0000479,49.0553389 65.0555147,42.9998722 72.5,42.9998722 C79.9444853,42.9998722 85.9999521,49.0553389 85.9999521,56.4998242 C85.9999521,63.9443095 79.9444853,69.9997763 72.5,69.9997763 Z" id="Shape"></path>
                <path d="M73,46 C69.6908857,46 67,48.6910614 67,52 C67,55.3091143 69.6910614,58 73,58 C76.3091143,58 79,55.3089386 79,52 C79,48.6910614 76.3091143,46 73,46 Z M73,55.0000879 C71.3455307,55.0000879 69.9999121,53.6546451 69.9999121,52 C69.9999121,50.3455307 71.3453549,48.9999121 73,48.9999121 C74.6544693,48.9999121 76.0000879,50.3453549 76.0000879,52 C76.0000879,53.6546451 74.6544693,55.0000879 73,55.0000879 Z" id="Shape"></path>
                <path d="M77.3514648,61 L68.6485352,61 C66.0851172,61 64,63.0295604 64,65.5224779 L64,69.476482 C64,70.0119091 64.2849414,70.5069067 64.7484766,70.7754991 C67.2625,72.2304334 70.1154297,73 73,73 C75.8845703,73 78.7375,72.2304334 81.2515234,70.7754991 C81.7150586,70.5084887 82,70.0119091 82,69.4780641 L82,65.5240599 C82,63.0295604 79.9150586,61 77.3514648,61 Z M78.9999414,68.582463 C75.2665234,70.4423953 70.7334766,70.4423953 66.9998828,68.582463 L66.9998828,65.5240599 C66.9998828,64.6840054 67.7393945,64.0000439 68.6483594,64.0000439 L77.3512891,64.0000439 C78.2602539,64.0000439 78.9997656,64.6840054 78.9997656,65.5240599 L78.9997656,68.582463 L78.9999414,68.582463 Z" id="Shape"></path>
                <path d="M36.5,58 C27.4024737,58 20,65.4025131 20,74.5000879 C20,83.5976626 27.4024737,91 36.5,91 C45.5975263,91 53,83.5974869 53,74.4999121 C53,65.4023374 45.5975263,58 36.5,58 Z M36.5,87.9999361 C29.0555147,87.9999361 23.0000479,81.944437 23.0000479,74.4999121 C23.0000479,67.0553872 29.0555147,60.9998881 36.5,60.9998881 C43.9444853,60.9998881 49.9999521,67.0553872 49.9999521,74.4999121 C49.9999521,81.944437 43.9444853,87.9999361 36.5,87.9999361 Z" id="Shape"></path>
                <path d="M36,63 C32.6908857,63 30,65.6910614 30,69 C30,72.3091143 32.6910614,75 36,75 C39.3089386,75 42,72.3089386 42,69 C42,65.6910614 39.3091143,63 36,63 Z M36,72.0000879 C34.3455307,72.0000879 32.9999121,70.6546451 32.9999121,69 C32.9999121,67.3455307 34.3453549,65.9999121 36,65.9999121 C37.6544693,65.9999121 39.0000879,67.3453549 39.0000879,69 C39.0000879,70.6546451 37.6544693,72.0000879 36,72.0000879 Z" id="Shape"></path>
                <path d="M41.3514648,79 L32.6485352,79 C30.0851172,79 28,81.0295604 28,83.5224779 L28,87.476482 C28,88.0119091 28.2849414,88.5069067 28.7484766,88.7754991 C31.2625,90.2304334 34.1154297,91 37,91 C39.8845703,91 42.7375,90.2304334 45.2515234,88.7754991 C45.7150586,88.5084887 46,88.0120849 46,87.4780641 L46,83.5240599 C46,81.0295604 43.9150586,79 41.3514648,79 Z M42.9999414,86.582463 C39.2663477,88.4423953 34.7334766,88.4423953 30.9998828,86.582463 L30.9998828,83.5240599 C30.9998828,82.6840054 31.7393945,82.0000439 32.6483594,82.0000439 L41.3512891,82.0000439 C42.2602539,82.0000439 42.9997656,82.6840054 42.9997656,83.5240599 L42.9997656,86.582463 L42.9999414,86.582463 Z" id="Shape"></path>
                <path d="M16.5,20 C7.40247371,20 0,27.4024737 0,36.5 C0,45.5975263 7.40247371,53 16.5,53 C25.5975263,53 33,45.5975263 33,36.5 C33,27.4024737 25.5973505,20 16.5,20 Z M16.5,49.9999521 C9.05551472,49.9999521 3.00004794,43.9444853 3.00004794,36.5 C3.00004794,29.0555147 9.05551472,23.0000479 16.5,23.0000479 C23.9444853,23.0000479 29.9999521,29.0555147 29.9999521,36.5 C29.9999521,43.9444853 23.9444853,49.9999521 16.5,49.9999521 Z" id="Shape"></path>
                <path d="M17,26 C13.6908857,26 11,28.6910614 11,32 C11,35.3089386 13.6910614,38 17,38 C20.3091143,38 23,35.3089386 23,32 C23,28.6910614 20.3089386,26 17,26 Z M17,35.0000879 C15.3455307,35.0000879 13.9999121,33.6546451 13.9999121,32 C13.9999121,30.3453549 15.3453549,28.9999121 17,28.9999121 C18.6544693,28.9999121 20.0000879,30.3453549 20.0000879,32 C20.0000879,33.6546451 18.6544693,35.0000879 17,35.0000879 Z" id="Shape"></path>
                <path d="M21.3514648,41 L12.6485352,41 C10.0851172,41 8,43.0295604 8,45.5224779 L8,49.476482 C8,50.0119091 8.28494141,50.5069067 8.74847656,50.7754991 C11.2625,52.2304334 14.1154297,53 17,53 C19.8845703,53 22.7375,52.2304334 25.2515234,50.7754991 C25.7150586,50.5084887 26,50.0119091 26,49.4780641 L26,45.5240599 C26,43.0295604 23.9148828,41 21.3514648,41 Z M22.9999414,48.582463 C19.2665234,50.4423953 14.7334766,50.4423953 10.9998828,48.582463 L10.9998828,45.5240599 C10.9998828,44.6840054 11.7393945,44.0000439 12.6483594,44.0000439 L21.3512891,44.0000439 C22.2602539,44.0000439 22.9997656,44.6840054 22.9997656,45.5240599 L22.9997656,48.582463 L22.9999414,48.582463 Z" id="Shape"></path>
                <path d="M53.5,0 C44.4024737,0 37,7.40247371 37,16.5 C37,25.5975263 44.4024737,33 53.5,33 C62.5975263,33 70,25.5975263 70,16.5 C70,7.40247371 62.5973505,0 53.5,0 Z M53.5,29.9999521 C46.0555147,29.9999521 40.0000479,23.9444853 40.0000479,16.5 C40.0000479,9.05551472 46.0555147,3.00004794 53.5,3.00004794 C60.9444853,3.00004794 66.9999521,9.05551472 66.9999521,16.5 C66.9999521,23.9444853 60.9444853,29.9999521 53.5,29.9999521 Z" id="Shape"></path>
                <path d="M53,6 C49.6908857,6 47,8.69106144 47,12 C47,15.3089386 49.6910614,18 53,18 C56.3089386,18 59,15.3091143 59,12.0001758 C59,8.69123722 56.3089386,6 53,6 Z M53,15.0000879 C51.3455307,15.0000879 49.9999121,13.6546451 49.9999121,12 C49.9999121,10.3455307 51.3453549,8.99991211 53,8.99991211 C54.6546451,8.99991211 56.0000879,10.3453549 56.0000879,12 C55.9999121,13.6546451 54.6544693,15.0000879 53,15.0000879 Z" id="Shape"></path>
                <path d="M57.3514648,21 L48.6485352,21 C46.0851172,21 44,23.0295604 44,25.5224779 L44,29.476482 C44,30.0119091 44.2849414,30.5069067 44.7484766,30.7754991 C47.2625,32.2304334 50.1154297,33 53,33 C55.8845703,33 58.7375,32.2304334 61.2515234,30.7754991 C61.7150586,30.5084887 62,30.0119091 62,29.4780641 L62,25.5240599 C62,23.0293846 59.9148828,21 57.3514648,21 Z M58.9999414,28.582463 C55.2665234,30.4423953 50.7334766,30.4423953 46.9998828,28.582463 L46.9998828,25.5240599 C46.9998828,24.6840054 47.7393945,24.0000439 48.6483594,24.0000439 L57.3512891,24.0000439 C58.2602539,24.0000439 58.9997656,24.6840054 58.9997656,25.5240599 L58.9997656,28.582463 L58.9999414,28.582463 Z" id="Shape"></path>
                <path d="M39.6234257,16.5280266 C39.060713,15.8954827 38.0714189,15.8197619 37.4129918,16.3631077 L26.5489444,25.336648 C25.8905173,25.8798164 25.8137252,26.8347502 26.3764379,27.4703088 C26.6869128,27.8198305 27.1258029,28 27.5678162,28 C27.9284447,28 28.2905429,27.8804781 28.5868718,27.6352277 L39.4509193,18.6616874 C40.1095301,18.1185189 40.1863221,17.1635851 39.6234257,16.5280266 Z" id="Path"></path>
                <path d="M72.7000453,39.6013474 L63.7000067,27.5998216 C63.2034226,26.9352872 62.2629889,26.8046658 61.5999392,27.2997263 C60.9368894,27.796369 60.8034709,28.7369137 61.2998793,29.3984594 L70.2999178,41.3999852 C70.5954074,41.7930802 71.0454093,42 71.5013878,42 C71.8134008,42 72.1299842,41.9024295 72.3999854,41.6999047 C73.0630351,41.2034378 73.1966294,40.2628931 72.7000453,39.6013474 Z" id="Path"></path>
                <path d="M59.7100349,60.6463599 C59.2299888,59.9320062 58.3208751,59.7882643 57.6799074,60.3230827 L49.5799589,67.0927773 C48.9389913,67.6277851 48.8100161,68.6409856 49.2898922,69.3536349 C49.5755408,69.7770959 50.010556,70 50.4513487,70 C50.75433,70 51.0588406,69.8933772 51.3200196,69.6767227 L59.4199681,62.9070281 C60.0609358,62.3723991 60.1900809,61.3590092 59.7100349,60.6463599 Z" id="Path"></path>
                <path d="M21.4446672,72 L10.555515,72 C9.69691012,72 9,72.6704559 9,73.5 C9,74.3295441 9.69691012,75 10.555515,75 L21.444485,75 C22.3030899,75 23,74.3295441 23,73.5 C23,72.6704559 22.3032722,72 21.4446672,72 Z" id="Path"></path>
                <path d="M17.0001758,0 C13.6910614,0 11,2.69106144 11,6 C11,9.30911435 13.6910614,12 17,12 C20.3091143,12 23,9.30893856 23,6 C23.0001758,2.69106144 20.3091143,0 17.0001758,0 Z M17.0001758,9.00008789 C15.3457065,9.00008789 14.0000879,7.65464506 14.0000879,6 C14.0000879,4.34553072 15.3455307,2.99991211 17.0001758,2.99991211 C18.6546451,2.99991211 20.0002637,4.34535494 20.0002637,6 C20.0000879,7.65464506 18.6546451,9.00008789 17.0001758,9.00008789 Z" id="Shape"></path>
                <path d="M17.5,9 C16.672038,9 16,9.69526947 16,10.555515 L16,21.444485 C16,22.3047305 16.672038,23 17.5,23 C18.327962,23 19,22.3047305 19,21.444485 L19,10.555515 C19,9.69526947 18.327962,9 17.5,9 Z" id="Path"></path>
            </g>
        </g>
    </g>
</svg>